<svg width="26" height="26" viewBox="0 0 26 26" fill="none" xmlns="http://www.w3.org/2000/svg">
<g clip-path="url(#clip0_11831_123)">
<path opacity="0.3" d="M6.66688 20.3889C6.66688 21.55 7.61688 22.5 8.77799 22.5H17.2224C18.3836 22.5 19.3336 21.55 19.3336 20.3889V7.72222H6.66688V20.3889ZM9.26355 12.8733L10.7519 11.385L13.0002 13.6228L15.238 11.385L16.7263 12.8733L14.4886 15.1111L16.7263 17.3489L15.238 18.8372L13.0002 16.5994L10.7624 18.8372L9.27411 17.3489L11.5119 15.1111L9.26355 12.8733ZM16.6947 4.55556L15.6391 3.5H10.3613L9.30577 4.55556H5.61133V6.66667H20.3891V4.55556H16.6947Z" fill="black"/>
</g>
<defs>
<clipPath id="clip0_11831_123">
<rect width="25.3333" height="25.3333" fill="white" transform="translate(0.333496 0.333344)"/>
</clipPath>
</defs>
</svg>
